This is a stereoscopic 3D rip of The Final Destination, for new 3D TVs or computers with Nvidia 3D Vision. Tested with Stereoscopic Player. Enjoy!

Title: The Final Destination (2009)
Rated: R
Runtime: 82 Minutes
Genre: Horror | Thriller

Description:
In a car race in McKinley Speedway, twenty-something Nick has a premonition of a deadly car crash with many casualties in the audience and convinces his girlfriend Lori and his friends Hunt and Janet to leave the place. They are followed by the security guard; a racist guy; a mother with her children and a mechanic, that are saved from death. When the racist guy and the mother die in mysterious and creepy incidents, Nick and Lori research and find many similar cases in Internet. They try to lure The Ripper to break the chain of deadly events and survive, but destiny does not help them.
-From IMDB Page: http://www.imdb.com/title/tt1144884/

General
Unique ID : 250366656423889315275528409864185801819 (0xBC5ADD33944E2F6289770F75FAE76C5B)
Complete name : [filepath]\The Final Destination 3D.mkv
Format : Matroska
File size : 4.27 GiB
Duration : 1h 14mn
Overall bit rate : 8 171 Kbps
Movie name : Final dest
Encoded date : UTC 2010-11-21 13:47:02
Writing application : mkvmerge v4.3.0 ('Escape from the Island') built on Sep 5 2010 10:30:51
Writing library : libebml v1.0.0 + libmatroska v1.0.0

Video
ID : 1
Format : AVC
Format/Info : Advanced Video Codec
Format profile : Main@L4.0
Format settings, CABAC : Yes
Format settings, ReFrames : 1 frame
Format settings, GOP : M=1, N=15
Codec ID : V_MPEG4/ISO/AVC
Duration : 1h 14mn
Bit rate mode : Variable
Bit rate : 7 625 Kbps
Maximum bit rate : 11.7 Mbps
Width : 1 920 pixels
Height : 1 080 pixels
Display aspect ratio : 16:9
Frame rate : 25.000 fps
Color space : YUV
Chroma subsampling : 4:2:0
Bit depth : 8 bits
Scan type : Progressive
Bits/(Pixel*Frame) : 0.147
Stream size : 3.99 GiB (93%)
Language : English

Audio
ID : 2
Format : AC-3
Format/Info : Audio Coding 3
Mode extension : CM (complete main)
Codec ID : A_AC3
Duration : 1h 14mn
Bit rate mode : Constant
Bit rate : 384 Kbps
Channel(s) : 6 channels
Channel positions : Front: L C R, Side: L R, LFE
Sampling rate : 48.0 KHz
Bit depth : 16 bits
Compression mode : Lossy
Stream size : 206 MiB (5%)
Language : English